name ../IE_Laxity/ie_45.mot
datacolumns  10
datarows 35
range   21.00000000 21.34000000
cursor 1.0 1.0 0.0
keys m_key
wrap
enforce_loops no
enforce_constraints no
calc_derivatives -1.000000
event_color 0.000000 0.000000 0.000000
endheader
            time femur_r_force_vx femur_r_force_vy femur_r_force_vz femur_r_force_px femur_r_force_py femur_r_force_pz femur_r_torque_x femur_r_torque_y femur_r_torque_z 
     21.00000000       0.00000000       0.00000000       0.00000000      -0.05123681      -0.49427285       0.00000000       3.11509185       3.11509185       0.00000000 
     21.01000000       0.00000000       0.00000000       0.00000000      -0.05123681      -0.49427285       0.00000000       3.12127089       3.12127089       0.00000000 
     21.02000000       0.00000000       0.00000000       0.00000000      -0.05123681      -0.49427285       0.00000000       3.12741023       3.12741023       0.00000000 
     21.03000000       0.00000000       0.00000000       0.00000000      -0.05123681      -0.49427285       0.00000000       3.13350967       3.13350967       0.00000000 
     21.04000000       0.00000000       0.00000000       0.00000000      -0.05123681      -0.49427285       0.00000000       3.13956904       3.13956904       0.00000000 
     21.05000000       0.00000000       0.00000000       0.00000000      -0.05123681      -0.49427285       0.00000000       3.14558817       3.14558817       0.00000000 
     21.06000000       0.00000000       0.00000000       0.00000000      -0.05123681      -0.49427285       0.00000000       3.15156688       3.15156688       0.00000000 
     21.07000000       0.00000000       0.00000000       0.00000000      -0.05123681      -0.49427285       0.00000000       3.15750498       3.15750498       0.00000000 
     21.08000000       0.00000000       0.00000000       0.00000000      -0.05123681      -0.49427285       0.00000000       3.16340231       3.16340231       0.00000000 
     21.09000000       0.00000000       0.00000000       0.00000000      -0.05123681      -0.49427285       0.00000000       3.16925870       3.16925870       0.00000000 
     21.10000000       0.00000000       0.00000000       0.00000000      -0.05123681      -0.49427285       0.00000000       3.17507397       3.17507397       0.00000000 
     21.11000000       0.00000000       0.00000000       0.00000000      -0.05123681      -0.49427285       0.00000000       3.18084794       3.18084794       0.00000000 
     21.12000000       0.00000000       0.00000000       0.00000000      -0.05123681      -0.49427285       0.00000000       3.18658047       3.18658047       0.00000000 
     21.13000000       0.00000000       0.00000000       0.00000000      -0.05123681      -0.49427285       0.00000000       3.19227136       3.19227136       0.00000000 
     21.14000000       0.00000000       0.00000000       0.00000000      -0.05123681      -0.49427285       0.00000000       3.19792046       3.19792046       0.00000000 
     21.15000000       0.00000000       0.00000000       0.00000000      -0.05123681      -0.49427285       0.00000000       3.20352760       3.20352760       0.00000000 
     21.16000000       0.00000000       0.00000000       0.00000000      -0.05123681      -0.49427285       0.00000000       3.20909262       3.20909262       0.00000000 
     21.17000000       0.00000000       0.00000000       0.00000000      -0.05123681      -0.49427285       0.00000000       3.21461535       3.21461535       0.00000000 
     21.18000000       0.00000000       0.00000000       0.00000000      -0.05123681      -0.49427285       0.00000000       3.22009563       3.22009563       0.00000000 
     21.19000000       0.00000000       0.00000000       0.00000000      -0.05123681      -0.49427285       0.00000000       3.22553331       3.22553331       0.00000000 
     21.20000000       0.00000000       0.00000000       0.00000000      -0.05123681      -0.49427285       0.00000000       3.23092821       3.23092821       0.00000000 
     21.21000000       0.00000000       0.00000000       0.00000000      -0.05123681      -0.49427285       0.00000000       3.23628019       3.23628019       0.00000000 
     21.22000000       0.00000000       0.00000000       0.00000000      -0.05123681      -0.49427285       0.00000000       3.24158908       3.24158908       0.00000000 
     21.23000000       0.00000000       0.00000000       0.00000000      -0.05123681      -0.49427285       0.00000000       3.24685473       3.24685473       0.00000000 
     21.24000000       0.00000000       0.00000000       0.00000000      -0.05123681      -0.49427285       0.00000000       3.25207699       3.25207699       0.00000000 
     21.25000000       0.00000000       0.00000000       0.00000000      -0.05123681      -0.49427285       0.00000000       3.25725570       3.25725570       0.00000000 
     21.26000000       0.00000000       0.00000000       0.00000000      -0.05123681      -0.49427285       0.00000000       3.26239071       3.26239071       0.00000000 
     21.27000000       0.00000000       0.00000000       0.00000000      -0.05123681      -0.49427285       0.00000000       3.26748187       3.26748187       0.00000000 
     21.28000000       0.00000000       0.00000000       0.00000000      -0.05123681      -0.49427285       0.00000000       3.27252903       3.27252903       0.00000000 
     21.29000000       0.00000000       0.00000000       0.00000000      -0.05123681      -0.49427285       0.00000000       3.27753204       3.27753204       0.00000000 
     21.30000000       0.00000000       0.00000000       0.00000000      -0.05123681      -0.49427285       0.00000000       3.28249075       3.28249075       0.00000000 
     21.31000000       0.00000000       0.00000000       0.00000000      -0.05123681      -0.49427285       0.00000000       3.28740503       3.28740503       0.00000000 
     21.32000000       0.00000000       0.00000000       0.00000000      -0.05123681      -0.49427285       0.00000000       3.29227472       3.29227472       0.00000000 
     21.33000000       0.00000000       0.00000000       0.00000000      -0.05123681      -0.49427285       0.00000000       3.29709968       3.29709968       0.00000000 
     21.34000000       0.00000000       0.00000000       0.00000000      -0.05123681      -0.49427285       0.00000000       3.30187978       3.30187978       0.00000000 
